<svg aria-hidden="true" xmlns="http://www.w3.org/2000/svg"><defs><symbol id="burger-close" viewBox="0 0 32 32"><path d="M23.884 6.706 16 14.59 8.116 6.706a.995.995 0 0 0-1.38.031 1 1 0 0 0-.031 1.38l7.88 7.884-7.882 7.882a1.002 1.002 0 0 0-.018 1.427.998.998 0 0 0 1.427-.015l7.886-7.882 7.884 7.884a1 1 0 0 0 1.38-.03 1 1 0 0 0 .03-1.38l-7.884-7.884 7.884-7.886a1.002 1.002 0 0 0 .018-1.427.998.998 0 0 0-1.427.015v.002z"/></symbol><symbol id="burger-open" viewBox="0 0 32 32"><path stroke-width="2" stroke-linecap="round" d="M6 10h20M6 16h20M6 22h20"/></symbol><symbol id="button-icon" viewBox="0 0 32 32"><path stroke-width="5.333" stroke-linecap="round" stroke-linejoin="round" d="M10.667 5.333 23.867 16l-13.2 10.667"/></symbol><symbol id="arrow-default" viewBox="0 0 82 32"><path d="M81.414 17.414a2 2 0 0 0 0-2.828L68.686 1.858a2 2 0 1 0-2.828 2.828L77.172 16 65.858 27.314a2 2 0 1 0 2.828 2.828l12.728-12.728zM0 18h80v-4H0v4z"/></symbol><symbol id="arrow" viewBox="0 0 84 32"><path d="M81.949 17.191a2 2 0 0 0 0-2.828L69.221 1.635a2 2 0 0 0-2.829 2.828l11.314 11.314-11.314 11.314a2 2 0 0 0 2.829 2.829l12.728-12.728zm-81.884.586h80.469v-4H.065v4z"/></symbol><symbol id="close" viewBox="0 0 32 32"><path d="M18.088 16 30.37 3.719a1.481 1.481 0 0 0-2.089-2.089L16 13.911 3.719 1.615a1.487 1.487 0 1 0-2.104 2.104L13.911 16 1.615 28.281a1.484 1.484 0 0 0 .423 2.505 1.472 1.472 0 0 0 1.186-.046c.184-.089.347-.215.48-.37L16 18.088 28.281 30.37a1.481 1.481 0 0 0 2.089-2.089L18.088 16z"/></symbol><symbol id="icon-arrow" viewBox="0 0 32 32"><path stroke-linejoin="round" stroke-linecap="round" stroke-width="5.333" d="M10.667 5.333 23.863 16 10.667 26.667"/></symbol><symbol id="icon-cow" viewBox="0 0 31 32"><path fill="#f8d24e" style="fill:var(--color1,#f8d24e)" d="M15.686.144c8.663 0 15.686 7.023 15.686 15.686v.008c0 8.663-7.023 15.686-15.686 15.686S0 24.501 0 15.838v-.008C0 7.167 7.023.144 15.686.144z"/><path fill="#131313" style="fill:var(--color2,#131313)" d="M8.746 4.528c-.184.159-.71 1.257-.899 1.857-.225.743-.302 1.3-.271 2.069.041 1.098.317 1.931.925 2.801.158.228.286.424.286.44 0 .011-.097.021-.22.021-.526 0-1.513.175-2.269.403-1.201.361-1.906.992-1.906 1.697 0 .249.225.674.465.891.465.419 1.482.817 2.576 1.008.378.069 1.502.186 1.753.191.046 0 .061.244.061 1.045 0 .69.026 1.225.077 1.554.184 1.178.756 2.424 1.513 3.305l.261.302-.174.281c-.255.398-.353.7-.383 1.151-.077 1.082.598 2.042 1.901 2.716 2.484 1.289 6.342.785 7.788-1.018.705-.881.787-1.888.23-2.801l-.174-.281.312-.377c.583-.7.961-1.4 1.247-2.286.24-.753.332-1.48.332-2.631 0-.525.015-.96.041-.96a22.135 22.135 0 0 0 1.722-.191c1.099-.191 2.095-.583 2.576-1.008.24-.217.465-.642.465-.891 0-.785-.797-1.422-2.279-1.804-.485-.127-1.4-.281-1.845-.308l-.21-.016.23-.318c.286-.387.644-1.14.782-1.634.388-1.427.148-3.087-.685-4.673-.348-.658-.588-.812-.869-.552-.107.101-.153.239-.256.737-.317 1.586-.905 2.843-1.763 3.771l-.378.414h-8.085l-.337-.366c-.838-.923-1.446-2.228-1.763-3.819-.102-.499-.148-.637-.256-.737-.169-.154-.332-.149-.521.016zM9.4 7.673a8.427 8.427 0 0 0 1.007 1.666l.317.408-.332.249a3.345 3.345 0 0 0-.828.965l-.097.175-.245-.334c-.838-1.156-1.048-2.573-.603-4.042.215-.711.21-.706.404-.09.092.297.266.748.378 1.003zm13.303-1.119c.209.631.291 1.135.291 1.788 0 .965-.256 1.782-.792 2.514l-.24.329-.179-.302a3.165 3.165 0 0 0-.894-.981 1.227 1.227 0 0 1-.245-.191c0-.016.097-.138.22-.271.567-.631 1.175-1.766 1.477-2.742.092-.302.184-.552.199-.552s.092.186.163.408zm-2.612 3.878c.567.239 1.109.923 1.196 1.501.046.318.153.52.291.552.061.011.485.048.94.08 1.615.106 2.887.451 3.429.923.25.223.225.408-.077.637-.603.456-1.906.801-3.235.859-.879.037-1.063.064-1.18.186-.087.09-.097.186-.097 1.146 0 1.3-.066 2.048-.23 2.652-.23.822-.685 1.697-1.216 2.318l-.22.255-.455-.271a5.634 5.634 0 0 0-1.686-.684c-1.937-.462-4.078-.18-5.519.727l-.332.212-.21-.249a7.744 7.744 0 0 1-.915-1.453c-.393-.912-.511-1.655-.511-3.289 0-1.586.082-1.469-1.094-1.533-1.502-.08-2.647-.35-3.368-.806-.532-.339-.445-.642.296-.997.71-.345 1.686-.552 3.041-.637 1.053-.069 1.078-.085 1.175-.594.143-.769.71-1.406 1.426-1.607.179-.053 1.181-.064 4.247-.058l4.012.011.291.122zm-2.872 10.98c1.252.308 2.187.881 2.591 1.591.097.164.138.334.158.594.02.324.005.403-.118.668-.567 1.204-2.652 2-4.773 1.819-2.55-.212-4.226-1.634-3.567-3.029.358-.753 1.569-1.475 2.847-1.687.21-.032.419-.069.46-.08s.501-.011 1.022 0c.71.016 1.053.048 1.38.122z"/><path fill="#131313" style="fill:var(--color2,#131313)" d="M12.15 13.089c-.317.106-.531.244-.818.53-.25.239-.271.52-.061.69.194.159.378.138.613-.069.296-.26.526-.366.813-.366.286-.005.506.095.813.366.235.207.419.228.613.069.102-.085.133-.154.133-.313 0-.164-.036-.239-.215-.419-.506-.509-1.257-.706-1.891-.488zM18.109 13.084c-.327.122-.746.398-.915.605-.163.202-.169.43 0 .599.169.18.373.17.618-.032.603-.499 1.053-.515 1.61-.053.143.122.307.217.358.217.25 0 .455-.223.455-.488 0-.17-.424-.562-.807-.748-.424-.207-.93-.244-1.318-.101zM12.891 22.903c-.148.143-.199.35-.123.515.056.133.143.186.496.281.158.042.225.095.281.228.072.175.077.175.47.191l.393.016v-.149c-.005-.212-.123-.52-.276-.732-.179-.244-.491-.403-.843-.435-.24-.021-.302-.011-.399.085zM17.771 22.866c-.256.069-.623.414-.726.684a1.824 1.824 0 0 0-.097.483c-.01.228.01.281.133.393.302.265.7.058.7-.366 0-.207.153-.35.424-.403.286-.053.388-.17.393-.44 0-.355-.317-.493-.828-.35z"/></symbol><symbol id="icon-ice-crema" viewBox="0 0 31 32"><path fill="#f8d24e" style="fill:var(--color1,#f8d24e)" d="M15.686 0c8.663 0 15.686 7.023 15.686 15.686v.008c0 8.663-7.023 15.686-15.686 15.686S0 24.357 0 15.694v-.008C0 7.023 7.023 0 15.686 0z"/><path style="fill:var(--color3,#000)" d="M15.763 4.468c.057.151.17.884.17 1.111 0 .562-.208 1.087-.591 1.498-.317.34-.633.529-1.394.836-.846.345-1.196.553-1.592.945-.402.402-.638.841-.723 1.356-.095.562 0 .959.288 1.186l.146.113-.232.146c-.468.307-1.318 1.03-1.465 1.252-.284.425-.255.822.066.983l.151.076-.17.161c-.255.241-.307.406-.269.841.024.288.014.444-.052.68-.08.307-.08.312.024.529.104.213.397.482.662.595.128.057.132.076.161.51.014.25.038 1.049.057 1.777.014.728.047 1.394.076 1.474a.56.56 0 0 0 .194.255c.274.189.463.392.586.629.137.269.288.931.747 3.218l.321 1.607.199.189c.378.373 1.101.543 2.292.543 1.196 0 1.909-.165 2.287-.539l.203-.194.293-1.488c.647-3.256.704-3.436 1.21-3.837.156-.128.307-.284.335-.354.033-.08.066-.699.09-1.635a43.72 43.72 0 0 1 .066-1.829l.028-.317.307-.232c.387-.298.539-.567.539-.983-.005-.491-.326-1.03-.912-1.512l-.279-.227.137-.194c.572-.789.213-1.881-.851-2.608l-.321-.222.118-.123c.524-.562.61-2.24.17-3.407-.265-.695-.87-1.451-1.611-2.008-.364-.274-1.366-.879-1.456-.879-.019 0-.019.033-.005.076zm1.361 1.649c.25.246.553.581.671.751.704.983.884 2.216.458 3.124-.17.369-.68.917-1.153 1.243-.723.501-2.349 1.342-3.483 1.805-1.824.742-2.883.884-3.005.397-.047-.184.09-.331.671-.718.525-.359 2.878-2.108 2.92-2.178.014-.019-.227.09-.529.241-1.025.52-1.512.421-1.489-.302.014-.525.392-1.12.917-1.46.132-.085.543-.274.921-.425 1.243-.501 1.621-.756 2.041-1.385.25-.373.525-1.063.543-1.356.005-.104.024-.184.038-.184s.227.203.477.449zm1.29 5.368c.345.194.704.525.86.784.274.468.132.936-.458 1.531-.643.652-1.739 1.276-2.944 1.673-1.111.364-2.174.534-3.695.586l-.945.033.614.038c.794.052 2.33.005 2.925-.09 1.583-.25 2.93-.751 3.894-1.441.217-.156.444-.284.506-.284.156 0 .836.652.974.926a.706.706 0 0 1 .08.421c-.071.629-.836.964-2.684 1.186-2.259.269-5.212.005-6.474-.576-.595-.274-.695-.43-.543-.846.047-.132.057-.288.038-.51-.024-.293-.019-.331.085-.439.236-.255.633-.402 2.089-.77.51-.132 1.205-.34 1.536-.463.803-.293 2.311-1.054 3.01-1.522.657-.435.751-.454 1.134-.236zm-6.276 5.784c.992.288 1.871.373 3.506.34 1.229-.024 1.985-.099 3.076-.293.222-.038.416-.071.44-.071.052 0 .038 1.815-.019 2.292-.061.506-.198.898-.345.992-.151.099-.907.203-1.919.26-2.075.113-4.206 0-4.867-.265-.359-.146-.397-.335-.402-2.089 0-1.167.009-1.328.071-1.304.038.014.246.076.458.137zm1.12 4.017c.34.043.709.085.822.099l.203.024-.18.198c-.232.25-.586.751-.714 1.007-.146.293-.194.312-.411.194l-.184-.104-.104-.643a19.25 19.25 0 0 0-.132-.742c-.043-.123-.085-.123.699-.033zm5.038-.052c0 .009-.024.132-.047.269-.028.142-.146.912-.265 1.715-.241 1.678-.402 2.467-.548 2.731-.203.354-.69.562-1.479.628-.307.024-1.233-.038-1.285-.085-.038-.043.775-1.049.903-1.115.118-.066.151-.057.553.151.468.246.704.283.704.128s-.123-.307-.425-.515c-.279-.198-.378-.312-.378-.444 0-.038.137-.25.302-.473s.406-.576.529-.789l.232-.383.213.028c.43.061.543.057.529-.038a1.118 1.118 0 0 0-.18-.298c-.09-.118-.161-.236-.161-.26 0-.09.439-.917.581-1.092.123-.151.222-.227.222-.161zm-2.954.378c.236.156 1.125.926 1.181 1.021.024.043-.888 1.47-1.068 1.673-.019.024-.118-.024-.217-.099-.099-.08-.468-.335-.822-.567l-.638-.421.383-.647c.68-1.139.666-1.12.813-1.12.076 0 .241.071.369.161zm1.791.17c-.165.203-.302.331-.359.331-.123 0-.321-.109-.657-.354l-.279-.203.558-.033c.302-.014.595-.033.647-.043.378-.061.378-.057.09.302zm-3.572 2.273c.435.17 1.172.572 1.385.751.151.123.151.132.09.283a4.746 4.746 0 0 1-.293.506 8.326 8.326 0 0 0-.317.525c-.151.293-.198.317-.51.232-.335-.099-.515-.269-.61-.576-.128-.43-.331-1.645-.307-1.834.009-.071.208-.028.562.113z"/></symbol><symbol id="icon-weight" viewBox="0 0 32 32"><path fill="#f8d24e" style="fill:var(--color1,#f8d24e)" d="M16 0c8.837 0 16 7.163 16 16s-7.163 16-16 16S0 24.837 0 16 7.163 0 16 0z"/><path style="fill:var(--color3,#000)" d="M14.688 4.874c-2.861.424-5.218 2.013-6.085 4.093-.277.657-.351 1.061-.351 1.853.005.585.027.802.117 1.118.186.621.319.937.596 1.382l.255.414-.287.352c-2.271 2.826-2.521 6.8-.628 9.931.707 1.175 1.862 2.329 2.989 3.001l.335.197 9.175-.078.218-.119c.761-.43 1.835-1.387 2.436-2.163a9.082 9.082 0 0 0 1.745-4.047c.085-.533.085-2.111-.005-2.613-.271-1.547-.851-2.872-1.766-4.047a4.477 4.477 0 0 1-.314-.424c0-.01.096-.171.207-.352a5.56 5.56 0 0 0 .622-1.413c.144-.518.144-1.811 0-2.329-.511-1.837-2.042-3.369-4.207-4.212-.606-.238-1.644-.492-2.314-.574-.622-.072-2.159-.057-2.739.031zm3.239.843c2.84.554 4.92 2.293 5.303 4.435.085.481.032 1.299-.112 1.754-.144.445-.41.968-.723 1.413-.128.181-.234.388-.234.455s.112.243.271.419c1.33 1.475 2.032 3.322 2.032 5.32-.005 2.272-.878 4.264-2.558 5.827a8.892 8.892 0 0 1-.915.75l-.399.269-8.792.036-.34-.217c-1.234-.802-2.346-2.127-2.963-3.534a7.942 7.942 0 0 1-.223-5.698c.335-.963.782-1.749 1.463-2.577.277-.331.404-.528.404-.621 0-.078-.138-.331-.319-.595-.638-.926-.899-1.956-.745-2.929.16-.983.606-1.791 1.431-2.593 1.074-1.04 2.574-1.728 4.335-1.987.729-.109 2.34-.067 3.085.072z"/><path style="fill:var(--color3,#000)" d="M14.927 6.628c-2.181.357-3.888 1.568-4.446 3.157-.128.357-.149.497-.149 1.009s.021.652.149 1.009c.08.228.229.543.33.704.277.445.399.461.947.129a8.61 8.61 0 0 1 2.739-1.071c.66-.135 1.925-.186 2.643-.104a8.765 8.765 0 0 1 3.314 1.107c.277.16.558.295.628.295.404 0 .92-1.164.92-2.07 0-2.013-1.925-3.736-4.654-4.166-.58-.093-1.861-.093-2.42 0zm2.632.828c.915.197 1.755.569 2.388 1.061.851.657 1.308 1.573 1.234 2.458-.027.352-.16.828-.239.88-.021.01-.319-.114-.66-.279a10.537 10.537 0 0 0-2.324-.792c-.495-.104-.702-.119-1.808-.114-1.09 0-1.319.016-1.792.114a9.56 9.56 0 0 0-2.244.766c-.793.378-.75.383-.894-.083-.186-.605-.069-1.408.293-2.013.191-.321.718-.854 1.101-1.118.729-.502 1.367-.73 2.739-.978.282-.052 1.846.021 2.207.098zM16.693 14.132c-.149.186-.149.362.005.512.101.098.202.124.569.15a4.683 4.683 0 0 1 2.005.611c.436.259 1.101.885 1.399 1.335.441.647.745 1.573.745 2.256 0 .238.021.31.133.414.17.171.394.171.558 0 .117-.119.122-.15.09-.657-.149-2.505-2.292-4.595-4.856-4.735l-.532-.031-.117.145z"/></symbol><symbol id="icon-about-arrow" viewBox="0 0 32 32"><path stroke-linejoin="round" stroke-linecap="round" stroke-width="5.333" d="M10.667 5.333 23.863 16 10.667 26.667"/></symbol><symbol id="icon-close_btn" viewBox="0 0 32 32"><path d="m17.254 16 7.369-7.369a.886.886 0 0 0-.047-1.207.89.89 0 0 0-1.207-.047L16 14.746 8.631 7.368A.892.892 0 0 0 7.369 8.63l7.378 7.369-7.378 7.369a.891.891 0 0 0-.05 1.304.906.906 0 0 0 .663.26.88.88 0 0 0 .641-.31l7.378-7.369 7.369 7.369a.886.886 0 0 0 1.207-.047.893.893 0 0 0 .047-1.207l-7.369-7.369z"/></symbol></defs><symbol id="marker" viewBox="0 0 7 10" fill="none"><path d="m1 1 4.95 4L1 9" stroke-width="2" stroke-linecap="round" stroke-linejoin="round"/></symbol><symbol id="facebook" viewBox="0 0 34 34"><path d="M17 34c9.389 0 17-7.611 17-17S26.389 0 17 0 0 7.611 0 17s7.611 17 17 17Z" fill="#F8D24E"/><path d="M21.724 16.98H18.95V27.2h-4.202V16.98H12.75V13.39h1.998v-2.324c0-1.662.785-4.265 4.24-4.265l3.112.013V10.3h-2.258c-.37 0-.891.187-.891.98v2.113h3.14l-.367 3.588Z"/></symbol><symbol id="github" viewBox="0 0 34 34"><circle cx="17" cy="17" r="17" fill="#F8D24E"/><path d="M17 7C11.507 7 7 11.507 7 17c0 4.687 3.289 8.945 7.656 10v-3.308c-.433.094-.83.097-1.271-.033-.591-.174-1.071-.568-1.428-1.168-.227-.383-.63-.8-1.05-.769l-.103-1.167c.909-.078 1.694.554 2.16 1.337.208.349.447.553.753.643.295.088.613.046.983-.085.093-.741.433-1.018.69-1.41-2.605-.388-3.643-1.77-4.055-2.86-.546-1.449-.253-3.258.712-4.402.019-.022.053-.08.04-.12-.443-1.338.096-2.444.116-2.561.511.15.594-.152 2.22.835l.28.169c.118.07.08.03.198.02A8.484 8.484 0 0 1 17 11.828c.71.009 1.42.11 2.127.302l.091.01c-.008-.002.025-.006.08-.039 2.03-1.23 1.957-.828 2.502-1.005.02.118.551 1.242.113 2.562-.059.182 1.76 1.848.752 4.522-.412 1.09-1.45 2.473-4.054 2.861.334.51.735.78.733 1.83V27C23.71 25.945 27 21.687 27 17c0-5.493-4.507-10-10-10Z"/></symbol><symbol id="telegram" viewBox="0 0 34 34"><circle cx="17" cy="17" r="17" fill="#F8D24E"/><path d="m13.671 19.524-.337 4.43c.483 0 .692-.194.943-.426l2.263-2.02 4.69 3.207c.86.447 1.467.211 1.699-.739l3.079-13.464v-.001c.273-1.187-.46-1.651-1.297-1.36L6.613 15.617c-1.236.448-1.217 1.09-.21 1.382l4.626 1.343 10.747-6.276c.506-.313.966-.14.587.173l-8.693 7.285Z"/></symbol></svg>