<svg aria-hidden="true"  version="1.1" xmlns="http://www.w3.org/2000/svg" xmlns:xlink="http://www.w3.org/1999/xlink">
<defs>

<!-- HERO-HEADER -->


<symbol id="burger-close" viewBox="0 0 32 32">
<path d="M23.884 6.706l-7.884 7.884-7.884-7.884c-0.19-0.174-0.439-0.267-0.696-0.261s-0.502 0.11-0.684 0.292c-0.182 0.182-0.286 0.427-0.292 0.684s0.088 0.506 0.261 0.696l7.88 7.884-7.882 7.882c-0.096 0.092-0.173 0.202-0.226 0.324s-0.081 0.253-0.083 0.386 0.023 0.265 0.073 0.388c0.050 0.123 0.124 0.235 0.218 0.329s0.206 0.169 0.329 0.219 0.255 0.075 0.388 0.074c0.133-0.002 0.264-0.029 0.386-0.082s0.232-0.13 0.324-0.226l7.886-7.882 7.884 7.884c0.19 0.174 0.439 0.267 0.696 0.262s0.502-0.11 0.684-0.292c0.182-0.182 0.286-0.427 0.292-0.684s-0.088-0.506-0.262-0.696l-7.884-7.884 7.884-7.886c0.096-0.092 0.173-0.202 0.226-0.324s0.081-0.253 0.083-0.386c0.002-0.133-0.023-0.265-0.073-0.388s-0.124-0.235-0.218-0.329c-0.094-0.094-0.206-0.169-0.329-0.219s-0.255-0.075-0.388-0.074-0.264 0.029-0.386 0.082c-0.122 0.053-0.232 0.13-0.324 0.226v0.002z"></path>
</symbol>
<symbol id="burger-open" viewBox="0 0 32 32">
<path stroke-width="2" stroke-miterlimit="4" stroke-linecap="round" stroke-linejoin="miter" d="M6 10h20"></path>
<path stroke-width="2" stroke-miterlimit="4" stroke-linecap="round" stroke-linejoin="miter" d="M6 16h20"></path>
<path stroke-width="2" stroke-miterlimit="4" stroke-linecap="round" stroke-linejoin="miter" d="M6 22h20"></path>
</symbol>
<symbol id="button-icon" viewBox="0 0 32 32">
<path stroke-width="5.3333" stroke-miterlimit="4" stroke-linecap="round" stroke-linejoin="round" d="M10.667 5.333l13.2 10.667-13.2 10.667"></path>
</symbol>
<symbol id="arrow-default" viewBox="0 0 82 32">
<path d="M81.414 17.414c0.781-0.781 0.781-2.047 0-2.828l-12.728-12.728c-0.781-0.781-2.047-0.781-2.828 0s-0.781 2.047 0 2.828l11.314 11.314-11.314 11.314c-0.781 0.781-0.781 2.047 0 2.828s2.047 0.781 2.828 0l12.728-12.728zM0 18h80v-4h-80v4z"></path>
</symbol>

<!-- PRODUCTS -->

<symbol id="arrow" viewBox="0 0 84 32">
<path d="M81.949 17.191c0.781-0.781 0.781-2.047 0-2.828l-12.728-12.728c-0.781-0.781-2.047-0.781-2.829 0s-0.781 2.047 0 2.828l11.314 11.314-11.314 11.314c-0.781 0.781-0.781 2.047 0 2.829s2.047 0.781 2.829 0l12.728-12.728zM0.065 17.777h80.469v-4h-80.469v4z"></path>
</symbol>
<symbol id="close" viewBox="0 0 32 32">
<path d="M18.088 16l12.282-12.281c0.243-0.283 0.369-0.648 0.355-1.021s-0.169-0.727-0.433-0.99c-0.264-0.264-0.617-0.418-0.99-0.433s-0.737 0.112-1.021 0.355l-12.281 12.281-12.281-12.296c-0.279-0.279-0.657-0.436-1.052-0.436s-0.773 0.157-1.052 0.436c-0.279 0.279-0.436 0.657-0.436 1.052s0.157 0.773 0.436 1.052l12.296 12.281-12.296 12.281c-0.155 0.133-0.281 0.296-0.37 0.48s-0.139 0.384-0.147 0.588c-0.008 0.204 0.026 0.408 0.101 0.598s0.187 0.363 0.332 0.507c0.144 0.145 0.317 0.257 0.507 0.332s0.394 0.109 0.598 0.101c0.204-0.008 0.404-0.058 0.588-0.147s0.347-0.215 0.48-0.37l12.296-12.282 12.281 12.282c0.283 0.243 0.648 0.369 1.021 0.355s0.727-0.169 0.99-0.433c0.264-0.264 0.418-0.617 0.433-0.99s-0.112-0.737-0.355-1.021l-12.282-12.281z"></path>
</symbol>

<!-- About  -->

<symbol id="icon-arrow" viewBox="0 0 32 32">
<path stroke-linejoin="round" stroke-linecap="round" stroke-miterlimit="4" stroke-width="5.3333" d="M10.667 5.333l13.196 10.667-13.196 10.667"></path>
</symbol>
<symbol id="icon-cow" viewBox="0 0 31 32">
<path fill="#f8d24e" style="fill: var(--color1, #f8d24e)" d="M15.686 0.144c8.663 0 15.686 7.023 15.686 15.686v0.008c0 8.663-7.023 15.686-15.686 15.686s-15.686-7.023-15.686-15.686v-0.008c0-8.663 7.023-15.686 15.686-15.686z"></path>
<path fill="#131313" style="fill: var(--color2, #131313)" d="M8.746 4.528c-0.184 0.159-0.71 1.257-0.899 1.857-0.225 0.743-0.302 1.3-0.271 2.069 0.041 1.098 0.317 1.931 0.925 2.801 0.158 0.228 0.286 0.424 0.286 0.44 0 0.011-0.097 0.021-0.22 0.021-0.526 0-1.513 0.175-2.269 0.403-1.201 0.361-1.906 0.992-1.906 1.697 0 0.249 0.225 0.674 0.465 0.891 0.465 0.419 1.482 0.817 2.576 1.008 0.378 0.069 1.502 0.186 1.753 0.191 0.046 0 0.061 0.244 0.061 1.045 0 0.69 0.026 1.225 0.077 1.554 0.184 1.178 0.756 2.424 1.513 3.305l0.261 0.302-0.174 0.281c-0.255 0.398-0.353 0.7-0.383 1.151-0.077 1.082 0.598 2.042 1.901 2.716 2.484 1.289 6.342 0.785 7.788-1.018 0.705-0.881 0.787-1.888 0.23-2.801l-0.174-0.281 0.312-0.377c0.583-0.7 0.961-1.4 1.247-2.286 0.24-0.753 0.332-1.48 0.332-2.631 0-0.525 0.015-0.96 0.041-0.96 0.235-0.005 1.364-0.127 1.722-0.191 1.099-0.191 2.095-0.583 2.576-1.008 0.24-0.217 0.465-0.642 0.465-0.891 0-0.785-0.797-1.422-2.279-1.804-0.485-0.127-1.4-0.281-1.845-0.308l-0.21-0.016 0.23-0.318c0.286-0.387 0.644-1.14 0.782-1.634 0.388-1.427 0.148-3.087-0.685-4.673-0.348-0.658-0.588-0.812-0.869-0.552-0.107 0.101-0.153 0.239-0.256 0.737-0.317 1.586-0.905 2.843-1.763 3.771l-0.378 0.414h-8.085l-0.337-0.366c-0.838-0.923-1.446-2.228-1.763-3.819-0.102-0.499-0.148-0.637-0.256-0.737-0.169-0.154-0.332-0.149-0.521 0.016zM9.4 7.673c0.271 0.594 0.608 1.151 1.007 1.666l0.317 0.408-0.332 0.249c-0.312 0.239-0.603 0.578-0.828 0.965l-0.097 0.175-0.245-0.334c-0.838-1.156-1.048-2.573-0.603-4.042 0.215-0.711 0.21-0.706 0.404-0.090 0.092 0.297 0.266 0.748 0.378 1.003zM22.703 6.554c0.209 0.631 0.291 1.135 0.291 1.788 0 0.965-0.256 1.782-0.792 2.514l-0.24 0.329-0.179-0.302c-0.209-0.371-0.567-0.759-0.894-0.981-0.138-0.090-0.245-0.18-0.245-0.191 0-0.016 0.097-0.138 0.22-0.271 0.567-0.631 1.175-1.766 1.477-2.742 0.092-0.302 0.184-0.552 0.199-0.552s0.092 0.186 0.163 0.408zM20.091 10.432c0.567 0.239 1.109 0.923 1.196 1.501 0.046 0.318 0.153 0.52 0.291 0.552 0.061 0.011 0.485 0.048 0.94 0.080 1.615 0.106 2.887 0.451 3.429 0.923 0.25 0.223 0.225 0.408-0.077 0.637-0.603 0.456-1.906 0.801-3.235 0.859-0.879 0.037-1.063 0.064-1.18 0.186-0.087 0.090-0.097 0.186-0.097 1.146 0 1.3-0.066 2.048-0.23 2.652-0.23 0.822-0.685 1.697-1.216 2.318l-0.22 0.255-0.455-0.271c-0.552-0.329-1.068-0.541-1.686-0.684-1.937-0.462-4.078-0.18-5.519 0.727l-0.332 0.212-0.21-0.249c-0.286-0.334-0.736-1.050-0.915-1.453-0.393-0.912-0.511-1.655-0.511-3.289 0-1.586 0.082-1.469-1.094-1.533-1.502-0.080-2.647-0.35-3.368-0.806-0.532-0.339-0.445-0.642 0.296-0.997 0.71-0.345 1.686-0.552 3.041-0.637 1.053-0.069 1.078-0.085 1.175-0.594 0.143-0.769 0.71-1.406 1.426-1.607 0.179-0.053 1.181-0.064 4.247-0.058l4.012 0.011 0.291 0.122zM17.219 21.412c1.252 0.308 2.187 0.881 2.591 1.591 0.097 0.164 0.138 0.334 0.158 0.594 0.020 0.324 0.005 0.403-0.118 0.668-0.567 1.204-2.652 2-4.773 1.819-2.55-0.212-4.226-1.634-3.567-3.029 0.358-0.753 1.569-1.475 2.847-1.687 0.21-0.032 0.419-0.069 0.46-0.080s0.501-0.011 1.022 0c0.71 0.016 1.053 0.048 1.38 0.122z"></path>
<path fill="#131313" style="fill: var(--color2, #131313)" d="M12.15 13.089c-0.317 0.106-0.531 0.244-0.818 0.53-0.25 0.239-0.271 0.52-0.061 0.69 0.194 0.159 0.378 0.138 0.613-0.069 0.296-0.26 0.526-0.366 0.813-0.366 0.286-0.005 0.506 0.095 0.813 0.366 0.235 0.207 0.419 0.228 0.613 0.069 0.102-0.085 0.133-0.154 0.133-0.313 0-0.164-0.036-0.239-0.215-0.419-0.506-0.509-1.257-0.706-1.891-0.488z"></path>
<path fill="#131313" style="fill: var(--color2, #131313)" d="M18.109 13.084c-0.327 0.122-0.746 0.398-0.915 0.605-0.163 0.202-0.169 0.43 0 0.599 0.169 0.18 0.373 0.17 0.618-0.032 0.603-0.499 1.053-0.515 1.61-0.053 0.143 0.122 0.307 0.217 0.358 0.217 0.25 0 0.455-0.223 0.455-0.488 0-0.17-0.424-0.562-0.807-0.748-0.424-0.207-0.93-0.244-1.318-0.101z"></path>
<path fill="#131313" style="fill: var(--color2, #131313)" d="M12.891 22.903c-0.148 0.143-0.199 0.35-0.123 0.515 0.056 0.133 0.143 0.186 0.496 0.281 0.158 0.042 0.225 0.095 0.281 0.228 0.072 0.175 0.077 0.175 0.47 0.191l0.393 0.016v-0.149c-0.005-0.212-0.123-0.52-0.276-0.732-0.179-0.244-0.491-0.403-0.843-0.435-0.24-0.021-0.302-0.011-0.399 0.085z"></path>
<path fill="#131313" style="fill: var(--color2, #131313)" d="M17.771 22.866c-0.256 0.069-0.623 0.414-0.726 0.684-0.046 0.122-0.092 0.339-0.097 0.483-0.010 0.228 0.010 0.281 0.133 0.393 0.302 0.265 0.7 0.058 0.7-0.366 0-0.207 0.153-0.35 0.424-0.403 0.286-0.053 0.388-0.17 0.393-0.44 0-0.355-0.317-0.493-0.828-0.35z"></path>
</symbol>
<symbol id="icon-ice-crema" viewBox="0 0 31 32">
<path fill="#f8d24e" style="fill: var(--color1, #f8d24e)" d="M15.686 0c8.663 0 15.686 7.023 15.686 15.686v0.008c0 8.663-7.023 15.686-15.686 15.686s-15.686-7.023-15.686-15.686v-0.008c0-8.663 7.023-15.686 15.686-15.686z"></path>
<path fill="#000" style="fill: var(--color3, #000)" d="M15.763 4.468c0.057 0.151 0.17 0.884 0.17 1.111 0 0.562-0.208 1.087-0.591 1.498-0.317 0.34-0.633 0.529-1.394 0.836-0.846 0.345-1.196 0.553-1.592 0.945-0.402 0.402-0.638 0.841-0.723 1.356-0.095 0.562 0 0.959 0.288 1.186l0.146 0.113-0.232 0.146c-0.468 0.307-1.318 1.030-1.465 1.252-0.284 0.425-0.255 0.822 0.066 0.983l0.151 0.076-0.17 0.161c-0.255 0.241-0.307 0.406-0.269 0.841 0.024 0.288 0.014 0.444-0.052 0.68-0.080 0.307-0.080 0.312 0.024 0.529 0.104 0.213 0.397 0.482 0.662 0.595 0.128 0.057 0.132 0.076 0.161 0.51 0.014 0.25 0.038 1.049 0.057 1.777 0.014 0.728 0.047 1.394 0.076 1.474 0.024 0.085 0.113 0.198 0.194 0.255 0.274 0.189 0.463 0.392 0.586 0.629 0.137 0.269 0.288 0.931 0.747 3.218l0.321 1.607 0.199 0.189c0.378 0.373 1.101 0.543 2.292 0.543 1.196 0 1.909-0.165 2.287-0.539l0.203-0.194 0.293-1.488c0.647-3.256 0.704-3.436 1.21-3.837 0.156-0.128 0.307-0.284 0.335-0.354 0.033-0.080 0.066-0.699 0.090-1.635 0.019-0.832 0.047-1.654 0.066-1.829l0.028-0.317 0.307-0.232c0.387-0.298 0.539-0.567 0.539-0.983-0.005-0.491-0.326-1.030-0.912-1.512l-0.279-0.227 0.137-0.194c0.572-0.789 0.213-1.881-0.851-2.608l-0.321-0.222 0.118-0.123c0.524-0.562 0.61-2.24 0.17-3.407-0.265-0.695-0.87-1.451-1.611-2.008-0.364-0.274-1.366-0.879-1.456-0.879-0.019 0-0.019 0.033-0.005 0.076zM17.124 6.117c0.25 0.246 0.553 0.581 0.671 0.751 0.704 0.983 0.884 2.216 0.458 3.124-0.17 0.369-0.68 0.917-1.153 1.243-0.723 0.501-2.349 1.342-3.483 1.805-1.824 0.742-2.883 0.884-3.005 0.397-0.047-0.184 0.090-0.331 0.671-0.718 0.525-0.359 2.878-2.108 2.92-2.178 0.014-0.019-0.227 0.090-0.529 0.241-1.025 0.52-1.512 0.421-1.489-0.302 0.014-0.525 0.392-1.12 0.917-1.46 0.132-0.085 0.543-0.274 0.921-0.425 1.243-0.501 1.621-0.756 2.041-1.385 0.25-0.373 0.525-1.063 0.543-1.356 0.005-0.104 0.024-0.184 0.038-0.184s0.227 0.203 0.477 0.449zM18.414 11.485c0.345 0.194 0.704 0.525 0.86 0.784 0.274 0.468 0.132 0.936-0.458 1.531-0.643 0.652-1.739 1.276-2.944 1.673-1.111 0.364-2.174 0.534-3.695 0.586l-0.945 0.033 0.614 0.038c0.794 0.052 2.33 0.005 2.925-0.090 1.583-0.25 2.93-0.751 3.894-1.441 0.217-0.156 0.444-0.284 0.506-0.284 0.156 0 0.836 0.652 0.974 0.926 0.076 0.156 0.095 0.269 0.080 0.421-0.071 0.629-0.836 0.964-2.684 1.186-2.259 0.269-5.212 0.005-6.474-0.576-0.595-0.274-0.695-0.43-0.543-0.846 0.047-0.132 0.057-0.288 0.038-0.51-0.024-0.293-0.019-0.331 0.085-0.439 0.236-0.255 0.633-0.402 2.089-0.77 0.51-0.132 1.205-0.34 1.536-0.463 0.803-0.293 2.311-1.054 3.010-1.522 0.657-0.435 0.751-0.454 1.134-0.236zM12.138 17.269c0.992 0.288 1.871 0.373 3.506 0.34 1.229-0.024 1.985-0.099 3.076-0.293 0.222-0.038 0.416-0.071 0.44-0.071 0.052 0 0.038 1.815-0.019 2.292-0.061 0.506-0.198 0.898-0.345 0.992-0.151 0.099-0.907 0.203-1.919 0.26-2.075 0.113-4.206 0-4.867-0.265-0.359-0.146-0.397-0.335-0.402-2.089 0-1.167 0.009-1.328 0.071-1.304 0.038 0.014 0.246 0.076 0.458 0.137zM13.258 21.286c0.34 0.043 0.709 0.085 0.822 0.099l0.203 0.024-0.18 0.198c-0.232 0.25-0.586 0.751-0.714 1.007-0.146 0.293-0.194 0.312-0.411 0.194l-0.184-0.104-0.104-0.643c-0.057-0.35-0.118-0.685-0.132-0.742-0.043-0.123-0.085-0.123 0.699-0.033zM18.296 21.234c0 0.009-0.024 0.132-0.047 0.269-0.028 0.142-0.146 0.912-0.265 1.715-0.241 1.678-0.402 2.467-0.548 2.731-0.203 0.354-0.69 0.562-1.479 0.628-0.307 0.024-1.233-0.038-1.285-0.085-0.038-0.043 0.775-1.049 0.903-1.115 0.118-0.066 0.151-0.057 0.553 0.151 0.468 0.246 0.704 0.283 0.704 0.128s-0.123-0.307-0.425-0.515c-0.279-0.198-0.378-0.312-0.378-0.444 0-0.038 0.137-0.25 0.302-0.473s0.406-0.576 0.529-0.789l0.232-0.383 0.213 0.028c0.43 0.061 0.543 0.057 0.529-0.038-0.009-0.047-0.090-0.184-0.18-0.298-0.090-0.118-0.161-0.236-0.161-0.26 0-0.090 0.439-0.917 0.581-1.092 0.123-0.151 0.222-0.227 0.222-0.161zM15.342 21.612c0.236 0.156 1.125 0.926 1.181 1.021 0.024 0.043-0.888 1.47-1.068 1.673-0.019 0.024-0.118-0.024-0.217-0.099-0.099-0.080-0.468-0.335-0.822-0.567l-0.638-0.421 0.383-0.647c0.68-1.139 0.666-1.12 0.813-1.12 0.076 0 0.241 0.071 0.369 0.161zM17.133 21.782c-0.165 0.203-0.302 0.331-0.359 0.331-0.123 0-0.321-0.109-0.657-0.354l-0.279-0.203 0.558-0.033c0.302-0.014 0.595-0.033 0.647-0.043 0.378-0.061 0.378-0.057 0.090 0.302zM13.561 24.055c0.435 0.17 1.172 0.572 1.385 0.751 0.151 0.123 0.151 0.132 0.090 0.283-0.038 0.085-0.165 0.312-0.293 0.506-0.123 0.189-0.265 0.425-0.317 0.525-0.151 0.293-0.198 0.317-0.51 0.232-0.335-0.099-0.515-0.269-0.61-0.576-0.128-0.43-0.331-1.645-0.307-1.834 0.009-0.071 0.208-0.028 0.562 0.113z"></path>
</symbol>
<symbol id="icon-weight" viewBox="0 0 32 32">
<path fill="#f8d24e" style="fill: var(--color1, #f8d24e)" d="M16 0c8.837 0 16 7.163 16 16s-7.163 16-16 16c-8.837 0-16-7.163-16-16s7.163-16 16-16z"></path>
<path fill="#000" style="fill: var(--color3, #000)" d="M14.688 4.874c-2.861 0.424-5.218 2.013-6.085 4.093-0.277 0.657-0.351 1.061-0.351 1.853 0.005 0.585 0.027 0.802 0.117 1.118 0.186 0.621 0.319 0.937 0.596 1.382l0.255 0.414-0.287 0.352c-2.271 2.826-2.521 6.8-0.628 9.931 0.707 1.175 1.862 2.329 2.989 3.001l0.335 0.197 9.175-0.078 0.218-0.119c0.761-0.43 1.835-1.387 2.436-2.163 0.904-1.18 1.495-2.556 1.745-4.047 0.085-0.533 0.085-2.111-0.005-2.613-0.271-1.547-0.851-2.872-1.766-4.047-0.176-0.223-0.314-0.409-0.314-0.424 0-0.010 0.096-0.171 0.207-0.352 0.261-0.414 0.495-0.947 0.622-1.413 0.144-0.518 0.144-1.811 0-2.329-0.511-1.837-2.042-3.369-4.207-4.212-0.606-0.238-1.644-0.492-2.314-0.574-0.622-0.072-2.159-0.057-2.739 0.031zM17.927 5.717c2.84 0.554 4.92 2.293 5.303 4.435 0.085 0.481 0.032 1.299-0.112 1.754-0.144 0.445-0.41 0.968-0.723 1.413-0.128 0.181-0.234 0.388-0.234 0.455s0.112 0.243 0.271 0.419c1.33 1.475 2.032 3.322 2.032 5.32-0.005 2.272-0.878 4.264-2.558 5.827-0.287 0.269-0.697 0.605-0.915 0.75l-0.399 0.269-8.792 0.036-0.34-0.217c-1.234-0.802-2.346-2.127-2.963-3.534-0.777-1.78-0.856-3.845-0.223-5.698 0.335-0.963 0.782-1.749 1.463-2.577 0.277-0.331 0.404-0.528 0.404-0.621 0-0.078-0.138-0.331-0.319-0.595-0.638-0.926-0.899-1.956-0.745-2.929 0.16-0.983 0.606-1.791 1.431-2.593 1.074-1.040 2.574-1.728 4.335-1.987 0.729-0.109 2.34-0.067 3.085 0.072z"></path>
<path fill="#000" style="fill: var(--color3, #000)" d="M14.927 6.628c-2.181 0.357-3.888 1.568-4.446 3.157-0.128 0.357-0.149 0.497-0.149 1.009s0.021 0.652 0.149 1.009c0.080 0.228 0.229 0.543 0.33 0.704 0.277 0.445 0.399 0.461 0.947 0.129 0.819-0.502 1.761-0.869 2.739-1.071 0.66-0.135 1.925-0.186 2.643-0.104 1.122 0.129 2.34 0.533 3.314 1.107 0.277 0.16 0.558 0.295 0.628 0.295 0.404 0 0.92-1.164 0.92-2.070 0-2.013-1.925-3.736-4.654-4.166-0.58-0.093-1.861-0.093-2.42 0zM17.559 7.456c0.915 0.197 1.755 0.569 2.388 1.061 0.851 0.657 1.308 1.573 1.234 2.458-0.027 0.352-0.16 0.828-0.239 0.88-0.021 0.010-0.319-0.114-0.66-0.279-0.707-0.342-1.511-0.616-2.324-0.792-0.495-0.104-0.702-0.119-1.808-0.114-1.090 0-1.319 0.016-1.792 0.114-0.819 0.176-1.457 0.393-2.244 0.766-0.793 0.378-0.75 0.383-0.894-0.083-0.186-0.605-0.069-1.408 0.293-2.013 0.191-0.321 0.718-0.854 1.101-1.118 0.729-0.502 1.367-0.73 2.739-0.978 0.282-0.052 1.846 0.021 2.207 0.098z"></path>
<path fill="#000" style="fill: var(--color3, #000)" d="M16.693 14.132c-0.149 0.186-0.149 0.362 0.005 0.512 0.101 0.098 0.202 0.124 0.569 0.15 0.713 0.052 1.394 0.259 2.005 0.611 0.436 0.259 1.101 0.885 1.399 1.335 0.441 0.647 0.745 1.573 0.745 2.256 0 0.238 0.021 0.31 0.133 0.414 0.17 0.171 0.394 0.171 0.558 0 0.117-0.119 0.122-0.15 0.090-0.657-0.149-2.505-2.292-4.595-4.856-4.735l-0.532-0.031-0.117 0.145z"></path>
</symbol>

<symbol id="icon-about-arrow" viewBox="0 0 32 32">
<path stroke-linejoin="round" stroke-linecap="round" stroke-miterlimit="4" stroke-width="5.3333" d="M10.667 5.333l13.196 10.667-13.196 10.667"></path>
</symbol>

<symbol id="icon-close_btn" viewBox="0 0 32 32">
<path d="M17.254 16l7.369-7.369c0.146-0.17 0.222-0.389 0.213-0.613s-0.101-0.436-0.26-0.594c-0.158-0.158-0.37-0.251-0.594-0.26s-0.442 0.067-0.613 0.213l-7.369 7.369-7.369-7.378c-0.167-0.167-0.394-0.261-0.631-0.261s-0.464 0.094-0.631 0.261c-0.167 0.167-0.261 0.394-0.261 0.631s0.094 0.464 0.261 0.631l7.378 7.369-7.378 7.369c-0.093 0.080-0.169 0.178-0.222 0.288s-0.083 0.23-0.088 0.353 0.016 0.245 0.061 0.359c0.045 0.114 0.112 0.218 0.199 0.304s0.19 0.154 0.304 0.199c0.114 0.045 0.236 0.065 0.359 0.061s0.243-0.035 0.353-0.088c0.11-0.053 0.208-0.129 0.288-0.222l7.378-7.369 7.369 7.369c0.17 0.146 0.389 0.222 0.613 0.213s0.436-0.101 0.594-0.26c0.158-0.158 0.251-0.371 0.26-0.594s-0.068-0.443-0.213-0.613l-7.369-7.369z"></path>
</symbol>

</defs>

    <symbol id="marker" viewBox="0 0 7 10" fill="none">
        <path d="M1 1L5.95 5L1 9" stroke="#131313" stroke-width="2" stroke-linecap="round" stroke-linejoin="round"/>
    </symbol> 

    <symbol id="facebook" viewBox="0 0 34 34">
        <path d="M17 34C26.3888 34 34 26.3888 34 17C34 7.61116 26.3888 0 17 0C7.61116 0 0 7.61116 0 17C0 26.3888 7.61116 34 17 34Z" fill="#F8D24E"/>
        <path d="M21.7235 16.9804H18.9502V27.2001H14.7484V16.9804H12.75V13.3888H14.7484V11.0646C14.7484 9.40261 15.5333 6.80005 18.9876 6.80005L22.1 6.81315V10.2994H19.8417C19.4713 10.2994 18.9505 10.4856 18.9505 11.2784V13.3922H22.0906L21.7235 16.9804Z" />
    </symbol>

    <symbol id="github" viewBox="0 0 34 34">
        <circle cx="17" cy="17" r="17" fill="#F8D24E"/>
        <path d="M17 7C11.5074 7 7 11.5074 7 17C7 21.687 10.2889 25.9447 14.6562 27V23.6916C14.2235 23.7863 13.8253 23.7891 13.3847 23.6592C12.7938 23.4848 12.3136 23.0912 11.9571 22.4909C11.7299 22.1076 11.3272 21.6919 10.9072 21.7224L10.8042 20.5551C11.7125 20.4773 12.4984 21.1086 12.9648 21.8923C13.172 22.2408 13.4105 22.4451 13.7166 22.5354C14.0125 22.6226 14.3302 22.5807 14.7003 22.45C14.7933 21.7089 15.1328 21.4315 15.3893 21.0408V21.0402C12.7846 20.6517 11.7466 19.2699 11.3346 18.1792C10.7886 16.731 11.0816 14.9218 12.047 13.7784C12.0658 13.7561 12.0996 13.6978 12.0865 13.6571C11.6439 12.32 12.1833 11.2139 12.2031 11.0965C12.714 11.2476 12.797 10.9445 14.4222 11.9319L14.7031 12.1007C14.8206 12.1707 14.7837 12.1308 14.9012 12.1219C15.5797 11.9376 16.295 11.8358 16.9998 11.8267C17.71 11.8358 18.4207 11.9376 19.1274 12.1294L19.2183 12.1385C19.2104 12.1373 19.243 12.1328 19.2978 12.1001C21.328 10.8704 21.2551 11.2723 21.7995 11.0953C21.8192 11.2128 22.3514 12.3369 21.9135 13.6571C21.8544 13.839 23.6736 15.5048 22.6653 18.1787C22.2533 19.2699 21.2154 20.6517 18.6107 21.0402V21.0408C18.9446 21.5497 19.3457 21.8204 19.3436 22.8702V27C23.7111 25.9447 26.9998 21.687 26.9998 17C27 11.5074 22.4926 7 17 7V7Z" />
    </symbol>

    <symbol id="telegram" viewBox="0 0 34 34">
        <circle cx="17" cy="17" r="17" fill="#F8D24E"/>
        <path d="M13.6713 19.5238L13.3338 23.9538C13.8167 23.9538 14.0258 23.7602 14.2765 23.5278L16.5401 21.5088L21.2305 24.7146C22.0907 25.162 22.6968 24.9264 22.9289 23.976L26.0076 10.5116L26.0085 10.5108C26.2813 9.32401 25.5486 8.85991 24.7105 9.15106L6.61358 15.6175C5.3785 16.0649 5.3972 16.7075 6.40362 16.9987L11.0303 18.3418L21.7771 12.0658C22.2829 11.7532 22.7427 11.9261 22.3645 12.2387L13.6713 19.5238Z" />
    </symbol>
    
</svg>
